<svg width="19" height="19" viewBox="0 0 19 19" fill="none" xmlns="http://www.w3.org/2000/svg">
<path d="M12.612 13.4388L14.222 11.8288C14.4388 11.6146 14.7132 11.468 15.0118 11.4068C15.3103 11.3455 15.6202 11.3723 15.9039 11.4838L17.8661 12.2672C18.1527 12.3836 18.3985 12.5822 18.5724 12.838C18.7464 13.0938 18.8407 13.3954 18.8436 13.7047V17.2985C18.8419 17.5089 18.7977 17.7168 18.7135 17.9097C18.6294 18.1026 18.5071 18.2765 18.354 18.4208C18.2009 18.5652 18.0201 18.6771 17.8226 18.7498C17.6251 18.8225 17.415 18.8545 17.2048 18.8438C3.45512 17.9885 0.680744 6.34472 0.156056 1.88847C0.1317 1.66963 0.153954 1.44812 0.221353 1.23851C0.288753 1.02889 0.399771 0.835924 0.547105 0.672296C0.694438 0.508668 0.874747 0.378089 1.07617 0.28915C1.27759 0.200211 1.49556 0.154928 1.71574 0.156279H5.18731C5.49709 0.157196 5.79952 0.250772 6.0557 0.424969C6.31187 0.599167 6.51007 0.846021 6.62481 1.13378L7.40824 3.09597C7.52343 3.37848 7.55281 3.68868 7.49273 3.9878C7.43265 4.28692 7.28577 4.56171 7.07043 4.77784L5.46043 6.38784C5.46043 6.38784 6.38762 12.6625 12.612 13.4388Z" fill="white"/>
</svg>
